<svg xmlns="http://www.w3.org/2000/svg" viewBox="0 0 24 24" fill="none" stroke="currentColor" stroke-width="2" stroke-linecap="round" stroke-linejoin="round" class="h-6 w-6">
    <path d="M19.5 4a2 2 0 1 1-3.996.15L15.5 4h-2v2h2v1a5.5 5.5 0 0 1 3.854 9.854l.146.146h1.5a2.5 2.5 0 1 1 0 5h-7a2.5 2.5 0 1 1 0-5h1.5l.146-.146A5.5 5.5 0 0 1 15 7h-2V4a2 2 0 1 1-4 0v3H8a5.5 5.5 0 0 1-3.854 9.854l-.146.146h-1.5a2.5 2.5 0 1 1 0-5h7a2.5 2.5 0 1 1 0 5h-1.5l-.146.146A5.5 5.5 0 0 1 9 7V4h-2v1a2 2 0 1 1-4 0V4h16v1z"/>
  </svg>
  